name Walk4.mot
datacolumns 19
datarows 22
range 1.65000000 1.67100000
endheader

                time	   L_ground_force_vx	   L_ground_force_vy	   L_ground_force_vz	   L_ground_force_px	   L_ground_force_py	   L_ground_force_pz	   R_ground_force_vx	   R_ground_force_vy	   R_ground_force_vz	   R_ground_force_px	   R_ground_force_py	   R_ground_force_pz	   L_ground_torque_x	   L_ground_torque_y	   L_ground_torque_z	   R_ground_torque_x	   R_ground_torque_y	   R_ground_torque_z	
          1.65000000	          0.00000000	          0.00000000	          0.00000000	          0.00000000	          0.00000000	          0.00000000	          0.00000000	          0.00000000	          0.00000000	          0.00000000	          0.00000000	          0.00000000	          0.00000000	          0.00000000	          0.00000000	          0.00000000	          0.00000000	          0.00000000	
          1.65100000	          0.00000000	          0.00000000	          0.00000000	          0.00000000	          0.00000000	          0.00000000	          0.00000000	          0.00000000	          0.00000000	          0.00000000	          0.00000000	          0.00000000	          0.00000000	          0.00000000	          0.00000000	          0.00000000	          0.00000000	          0.00000000	
          1.65200000	          0.00000000	          0.00000000	          0.00000000	          0.00000000	          0.00000000	          0.00000000	          0.00000000	          0.00000000	          0.00000000	          0.00000000	          0.00000000	          0.00000000	          0.00000000	          0.00000000	          0.00000000	          0.00000000	          0.00000000	          0.00000000	
          1.65300000	          0.00000000	          0.00000000	          0.00000000	          0.00000000	          0.00000000	          0.00000000	          0.00000000	          0.00000000	          0.00000000	          0.00000000	          0.00000000	          0.00000000	          0.00000000	          0.00000000	          0.00000000	          0.00000000	          0.00000000	          0.00000000	
          1.65400000	          0.00000000	          0.00000000	          0.00000000	          0.00000000	          0.00000000	          0.00000000	          0.00000000	          0.00000000	          0.00000000	          0.00000000	          0.00000000	          0.00000000	          0.00000000	          0.00000000	          0.00000000	          0.00000000	          0.00000000	          0.00000000	
          1.65500000	          0.00000000	          0.00000000	          0.00000000	          0.00000000	          0.00000000	          0.00000000	          0.00000000	          0.00000000	          0.00000000	          0.00000000	          0.00000000	          0.00000000	          0.00000000	          0.00000000	          0.00000000	          0.00000000	          0.00000000	          0.00000000	
          1.65600000	          3.55656127	          9.15903782	          0.63460490	         -0.58403948	          0.00000000	         -0.06638082	          0.00000000	          0.00000000	          0.00000000	          0.00000000	          0.00000000	          0.00000000	          0.00000000	         -0.07179327	          0.00000000	          0.00000000	          0.00000000	          0.00000000	
          1.65700000	          6.42736057	         18.17131351	          1.08001954	         -0.58059752	          0.00000000	         -0.06620768	          0.00000000	          0.00000000	          0.00000000	          0.00000000	          0.00000000	          0.00000000	          0.00000000	         -0.12983702	          0.00000000	          0.00000000	          0.00000000	          0.00000000	
          1.65800000	          9.76436744	         29.90142268	          1.57901775	         -0.57787077	          0.00000000	         -0.06643316	          0.00000000	          0.00000000	          0.00000000	          0.00000000	          0.00000000	          0.00000000	          0.00000000	         -0.19476768	          0.00000000	          0.00000000	          0.00000000	          0.00000000	
          1.65900000	         13.29568170	         44.30317835	          2.12265703	         -0.57483304	          0.00000000	         -0.06691437	          0.00000000	          0.00000000	          0.00000000	          0.00000000	          0.00000000	          0.00000000	          0.00000000	         -0.25551275	          0.00000000	          0.00000000	          0.00000000	          0.00000000	
          1.66000000	         16.93939201	         61.66951588	          2.75648079	         -0.57136527	          0.00000000	         -0.06736345	          0.00000000	          0.00000000	          0.00000000	          0.00000000	          0.00000000	          0.00000000	          0.00000000	         -0.30474329	          0.00000000	          0.00000000	          0.00000000	          0.00000000	
          1.66100000	         20.74506430	         82.15299744	          3.54410844	         -0.56798614	          0.00000000	         -0.06762034	          0.00000000	          0.00000000	          0.00000000	          0.00000000	          0.00000000	          0.00000000	          0.00000000	         -0.34107562	          0.00000000	          0.00000000	          0.00000000	          0.00000000	
          1.66200000	         24.75042626	        105.25168503	          4.50725167	         -0.56522209	          0.00000000	         -0.06771840	          0.00000000	          0.00000000	          0.00000000	          0.00000000	          0.00000000	          0.00000000	          0.00000000	         -0.36763905	          0.00000000	          0.00000000	          0.00000000	          0.00000000	
          1.66300000	         28.88125444	        129.63087392	          5.58177028	         -0.56323217	          0.00000000	         -0.06773889	          0.00000000	          0.00000000	          0.00000000	          0.00000000	          0.00000000	          0.00000000	          0.00000000	         -0.38988613	          0.00000000	          0.00000000	          0.00000000	          0.00000000	
          1.66400000	         32.91023934	        153.31434125	          6.61941566	         -0.56191846	          0.00000000	         -0.06774237	          0.00000000	          0.00000000	          0.00000000	          0.00000000	          0.00000000	          0.00000000	          0.00000000	         -0.41311128	          0.00000000	          0.00000000	          0.00000000	          0.00000000	
          1.66500000	         36.48882552	        174.19609773	          7.42578840	         -0.56112615	          0.00000000	         -0.06777770	          0.00000000	          0.00000000	          0.00000000	          0.00000000	          0.00000000	          0.00000000	          0.00000000	         -0.43827038	          0.00000000	          0.00000000	          0.00000000	          0.00000000	
          1.66600000	         39.24986683	        190.66536781	          7.82008154	         -0.56071922	          0.00000000	         -0.06785462	          0.00000000	          0.00000000	          0.00000000	          0.00000000	          0.00000000	          0.00000000	          0.00000000	         -0.46191267	          0.00000000	          0.00000000	          0.00000000	          0.00000000	
          1.66700000	         40.91473838	        202.04671901	          7.70256881	         -0.56056577	          0.00000000	         -0.06790046	          0.00000000	          0.00000000	          0.00000000	          0.00000000	          0.00000000	          0.00000000	          0.00000000	         -0.48403852	          0.00000000	          0.00000000	          0.00000000	          0.00000000	
          1.66800000	         41.35140678	        208.65006126	          7.08266590	         -0.56052629	          0.00000000	         -0.06779696	          0.00000000	          0.00000000	          0.00000000	          0.00000000	          0.00000000	          0.00000000	          0.00000000	         -0.51175459	          0.00000000	          0.00000000	          0.00000000	          0.00000000	
          1.66900000	         40.58848898	        211.46592667	          6.04859129	         -0.56047759	          0.00000000	         -0.06747319	          0.00000000	          0.00000000	          0.00000000	          0.00000000	          0.00000000	          0.00000000	          0.00000000	         -0.55109476	          0.00000000	          0.00000000	          0.00000000	          0.00000000	
          1.67000000	         38.79691879	        211.73794181	          4.72000778	         -0.56033491	          0.00000000	         -0.06696558	          0.00000000	          0.00000000	          0.00000000	          0.00000000	          0.00000000	          0.00000000	          0.00000000	         -0.59712314	          0.00000000	          0.00000000	          0.00000000	          0.00000000	
          1.67100000	         36.23533740	        210.62757211	          3.21845982	         -0.56005113	          0.00000000	         -0.06640434	          0.00000000	          0.00000000	          0.00000000	          0.00000000	          0.00000000	          0.00000000	          0.00000000	         -0.63526141	          0.00000000	          0.00000000	          0.00000000	          0.00000000	
